<svg width="320" height="379" viewBox="0 0 320 379" fill="none" xmlns="http://www.w3.org/2000/svg">
<path d="M268.835 98.3614C297.581 124.282 308.187 174.809 297.273 219.495C286.283 264.181 253.841 303.034 209.493 328.938C165.144 354.778 108.97 367.779 71.4556 347.475C33.9412 327.171 15.277 273.716 5.82023 221.266C-3.55626 168.812 -3.70831 117.435 21.2703 92.3599C46.2489 67.3691 96.2991 68.599 144.782 69.8289C193.282 71.1348 240.165 72.445 268.835 98.3614Z" fill="#F1F1F1"/>
<path d="M245.343 362.762H236.017V368.992H245.343V362.762Z" fill="#E49D75"/>
<path d="M291.344 351.248L284.536 356.751L289.409 362.787L296.217 357.285L291.344 351.248Z" fill="#E49D75"/>
<path d="M251.547 108.353H251.121C249.201 108.353 247.645 109.91 247.645 111.831V113.619C247.645 115.54 249.201 117.097 251.121 117.097H251.547C253.467 117.097 255.023 115.54 255.023 113.619V111.831C255.023 109.91 253.467 108.353 251.547 108.353Z" fill="#E49D75"/>
<path d="M254.432 239.816C255.699 242.723 265.414 301.073 266.841 306.593C268.269 312.113 291.106 348.097 292.66 350.248C293.138 353.358 286.084 358.62 282.739 358.62C279.394 355.975 240.325 299.328 239.388 296.813C238.45 294.298 235.303 234.118 254.432 239.816Z" fill="#5FC5D1"/>
<path d="M213.645 230.15C213.201 232.559 219.803 287.629 220.622 295.025C221.441 302.422 234.091 362.006 235.21 363.493C236.33 364.981 244.845 364.66 246.314 363.916C247.784 363.172 243.442 301.788 243.442 297.337C243.442 292.887 254.846 251.84 253.381 239.951C251.915 228.062 213.645 230.15 213.645 230.15Z" fill="#6BD5E1"/>
<path d="M246.014 163.393H237.098V178.921H246.014V163.393Z" fill="#E49D75"/>
<path d="M190.959 58.2612H49.5813C44.3515 58.2612 40.1119 62.5036 40.1119 67.7369V209.208C40.1119 214.441 44.3515 218.683 49.5813 218.683H190.959C196.189 218.683 200.429 214.441 200.429 209.208V67.7369C200.429 62.5036 196.189 58.2612 190.959 58.2612Z" fill="#E0E0E0"/>
<path d="M130.291 131.357C132.491 129.337 134.029 126.7 134.706 123.79C135.382 120.88 135.165 117.834 134.081 115.05C132.998 112.266 131.1 109.874 128.636 108.188C126.172 106.502 123.256 105.6 120.27 105.6C117.285 105.6 114.369 106.502 111.905 108.188C109.44 109.874 107.542 112.266 106.459 115.05C105.376 117.834 105.159 120.88 105.835 123.79C106.511 126.7 108.05 129.337 110.25 131.357L98.8333 177.683H141.695L130.291 131.357Z" fill="#A4A4A4"/>
<path d="M68.8032 58.2612C68.9261 44.6831 74.4027 31.7029 84.0413 22.145C93.6799 12.587 106.701 7.22461 120.27 7.22461C133.84 7.22461 146.861 12.587 156.499 22.145C166.138 31.7029 171.615 44.6831 171.738 58.2612" stroke="#E0E0E0" stroke-width="13" stroke-linecap="round" stroke-linejoin="round"/>
<path d="M240.406 165.946C247.17 165.946 252.654 158.566 252.654 149.463C252.654 140.36 247.17 132.98 240.406 132.98C233.641 132.98 228.157 140.36 228.157 149.463C228.157 158.566 233.641 165.946 240.406 165.946Z" fill="#E49D75"/>
<path d="M238.737 175.722C223.887 175.722 210.65 216.946 213.193 230.627C213.944 234.668 249.482 242.821 254.914 241.679C256.844 239.051 264.721 175.722 238.737 175.722Z" fill="#FFD98E"/>
<path d="M234.927 198.684C241.575 193.857 230.949 170.468 228.465 170.067C223.891 169.327 212.517 178.097 212.876 181.782C213.066 183.727 228.157 203.599 234.927 198.684Z" fill="#FFE4AD"/>
<path d="M214.983 180.046C213.193 177.894 208.716 167.366 208.226 164.868C207.736 162.371 206.536 124.827 206.536 122.604C206.536 120.381 203.58 114.773 203.58 111.425C203.58 108.078 206.984 103.539 208.716 103.48C210.565 104.794 213.133 112.503 213.252 114.468C213.898 110.242 216.956 109.27 217.792 109.27C218.628 109.27 218.519 115.8 215.055 120.195C215.178 123.424 219.279 155.406 219.942 157.257C220.605 159.108 228.157 171.242 228.14 172.315C228.123 173.389 214.983 180.046 214.983 180.046Z" fill="#E49D75"/>
<path d="M306.308 120.29L156.447 99.8011L155.862 104.085L305.723 124.574L306.308 120.29Z" fill="#A4A4A4"/>
<path d="M165.026 105.336L155.861 104.083L154.167 116.491L163.332 117.744L165.026 105.336Z" fill="#A4A4A4"/>
<path d="M173.853 106.545L168.923 105.871L167.229 118.278L172.159 118.952L173.853 106.545Z" fill="#A4A4A4"/>
<path d="M255.421 141.162C255.07 139.159 254.753 124.641 255.294 122.592C255.834 120.542 257.296 119.046 257.951 115.986C258.174 114.933 257.82 111.29 257.106 111.138C255.568 110.808 255.48 112.533 255.277 113.801C254.491 118.124 252.891 117.334 252.151 117.233C251.412 117.131 248.874 116.692 248.042 116.67C247.21 116.649 249.33 118.361 248.684 121.095C248.177 123.247 245.795 137.578 245.305 139.924C247.083 139.996 255.421 141.162 255.421 141.162Z" fill="#E49D75"/>
<path d="M182.266 107.691L177.336 107.017L175.642 119.424L180.572 120.098L182.266 107.691Z" fill="#A4A4A4"/>
<path d="M182.263 107.694L155.861 104.085L155.261 108.482L181.663 112.091L182.263 107.694Z" fill="#A4A4A4"/>
<path d="M310.307 111.611C308.111 111.312 305.875 111.671 303.883 112.642C301.891 113.614 300.231 115.155 299.114 117.07C297.996 118.985 297.471 121.189 297.605 123.403C297.739 125.616 298.525 127.741 299.865 129.507C301.205 131.274 303.038 132.603 305.133 133.327C307.228 134.052 309.49 134.138 311.634 133.577C313.778 133.015 315.708 131.829 317.179 130.17C318.65 128.512 319.596 126.454 319.899 124.257C320.1 122.796 320.011 121.31 319.638 119.884C319.264 118.457 318.614 117.118 317.723 115.944C316.832 114.769 315.718 113.782 314.446 113.039C313.173 112.295 311.767 111.81 310.307 111.611ZM316.351 123.758C316.146 125.255 315.503 126.657 314.502 127.788C313.501 128.919 312.187 129.727 310.727 130.11C309.267 130.494 307.726 130.436 306.299 129.943C304.872 129.45 303.623 128.545 302.71 127.342C301.797 126.139 301.262 124.692 301.171 123.184C301.08 121.676 301.438 120.175 302.199 118.871C302.961 117.566 304.092 116.517 305.449 115.856C306.807 115.195 308.33 114.952 309.825 115.157C311.83 115.432 313.644 116.493 314.868 118.106C316.091 119.718 316.625 121.752 316.351 123.758Z" fill="#A4A4A4"/>
<path d="M215.102 120.161C214.544 117.976 213.459 116.066 213.281 114.422V114.473C213.163 112.503 210.595 104.794 208.745 103.484C207.013 103.543 203.609 108.082 203.609 111.43C203.609 113.885 205.214 117.558 206.067 120.216H215.085L215.102 120.161Z" fill="#E49D75"/>
<path d="M229.369 139.138C229.369 144.839 233.39 148.356 239.764 150.317C239.764 158.119 240.967 158.461 240.967 163.212C240.967 173.448 239.223 168.33 239.223 186.005C239.223 196.664 243.683 202.462 251.894 202.462C261.824 202.462 267.521 191.951 267.521 186.288C267.521 179.103 260.417 166.618 259.919 156.251C259.23 142.304 254.897 130.634 244.029 130.634C234.746 130.634 229.369 134.092 229.369 139.138Z" fill="black"/>
<path d="M240.393 154.949C242.212 154.949 243.687 153.473 243.687 151.652C243.687 149.832 242.212 148.356 240.393 148.356C238.573 148.356 237.098 149.832 237.098 151.652C237.098 153.473 238.573 154.949 240.393 154.949Z" fill="#E49D75"/>
<path fill-rule="evenodd" clip-rule="evenodd" d="M296.2 356.072L301.479 363.282L290.435 378.92L280.011 378.987L280.146 373.7L284.331 371.849L288.052 362.661L296.2 356.072Z" fill="black"/>
<path d="M245.968 368.472V379H215.043V374.338L235.447 368.472H245.968Z" fill="black"/>
</svg>
