<?xml version="1.0" encoding="utf-8"?>
<!-- Generator: Adobe Illustrator 23.0.3, SVG Export Plug-In . SVG Version: 6.00 Build 0)  -->
<svg version="1.1" id="Layer_1" xmlns="http://www.w3.org/2000/svg" xmlns:xlink="http://www.w3.org/1999/xlink" x="0px" y="0px"
	 viewBox="0 0 1200 1200" enable-background="new 0 0 1200 1200" xml:space="preserve">
<g>
	<path fill="#541C00" d="M638.457,168.015c27.626-28.586,59.772-31.147,94.248-22.868c13.511,3.245,24.158,10.733,31.084,23.123
		c3.582,6.407,7.318,12.74,11.26,18.931c9.701,15.235,22.753,23.908,41.668,25.023c15.87,0.935,32.008,3.51,47.222,8.056
		c26.422,7.896,43.583,26.207,50.92,53.031c2.198,8.036,6.692,14.322,13.58,18.24c21.506,12.233,32.935,31.262,38.228,54.649
		c2.731,12.067,5.739,24.114,7.597,36.326c2.839,18.655,11.556,32.636,29.083,40.477c8.357,3.738,16.758,7.385,25.192,10.945
		c19.004,8.022,38.13,15.762,57.043,23.994c20.871,9.085,35.927,25.349,49.189,42.962c12.905,17.14,17.762,36.858,13.984,58.538
		c-10.342,59.342-42.1,102.618-96.216,129.24c-5.316,2.615-11.007,4.931-16.783,6.063c-22.489,4.409-44.968,9.171-67.669,12.117
		c-24.703,3.206-48.719,8.724-72.342,16.344c-13.437,4.334-22.822,12.352-27.656,26.32c-9.456,27.32-19.943,54.282-29.897,81.43
		c-6.825,18.613-15.448,36.227-27.072,52.39c-17.18,23.889-52.115,27.963-73.055,6.983c-8.547-8.564-14.678-19.757-20.923-30.336
		c-5.811-9.843-10.103-20.569-15.444-30.706c-5.968-11.328-15.559-15.524-28.388-15.221c-15.537,0.367-28.501,5.122-39.505,16.284
		c-8.031,8.146-16.721,15.699-25.552,22.99c-29.855,24.65-61.876,24.742-94.994,7.393c-9.735-5.1-19.021-11.066-28.447-16.743
		c-13.732-8.271-26.84-8.311-39.272,2.622c-5.507,4.843-11.272,9.413-16.564,14.479c-7.798,7.465-12.565,16.214-14.204,27.405
		c-2.387,16.298-6.155,32.447-10.212,48.437c-11.009,43.391-59.924,68.625-101.764,52.856
		c-16.925-6.379-31.862-14.943-43.837-29.498c-18.959-23.043-52.171-17.373-63.962,9.873c-2.733,6.315-5.107,12.787-7.613,19.199
		c-5.546,14.186-16.103,21.873-31.001,23.9c-4.089,0.556-8.19,1.053-12.3,1.418c-10.848,0.962-17.463,6.097-20.147,17.251
		c-1.673,6.952-4.789,14.032-8.974,19.812c-11.78,16.269-29.873,16.836-41.003,0.183c-12.247-18.325-22.26-38.494-23.54-60.964
		c-1.385-24.319,0.356-48.594,9.848-71.672c6.63-16.118,12.552-32.527,19.163-48.653c11.04-26.936,15.581-55.522,22.213-83.621
		c7.742-32.802,20.522-63.872,39.297-91.927c6.741-10.073,15.635-19.769,25.694-26.357c30.54-20.001,51.185-48.253,69.616-78.606
		c2.107-3.471,2.081-8.601,2.033-12.951c-0.147-13.264-1.339-26.532-1.113-39.781c0.355-20.763,7.223-39.635,19.296-56.442
		c19.869-27.66,42.582-51.796,77.322-60.613c13.799-3.502,24.755-10.436,31.55-23.907c5.131-10.173,12.427-19.233,18.426-28.993
		c10.236-16.654,23.155-30.892,39.094-42.048c19.4-13.58,34.9-31.053,50.588-48.403c7.859-8.691,9.053-19.731,10.462-30.693
		c1.75-13.621,2.404-27.541,5.754-40.769c8.971-35.421,31.825-58.558,66.996-67.966c20.843-5.576,39.693,3.135,57.316,13.616
		C622.169,156.048,629.74,161.969,638.457,168.015z M1078.919,474.037c-21.104-7.79-40.851-15.08-60.599-22.367
		c-6.457-2.383-13.031-4.491-19.358-7.179c-27.195-11.553-43.005-31.543-46.575-61.384c-1.463-12.227-5.187-24.183-7.863-36.268
		c-3.635-16.413-12.417-29.167-25.999-39.211c-5.731-4.238-10.36-10.232-14.714-16.013c-9.342-12.402-17.582-25.672-27.37-37.692
		c-13.395-16.449-31.764-20.602-52.06-17.901c-5.905,0.786-11.699,2.38-17.597,3.229c-20.656,2.975-37.053-4.966-47.174-23.275
		c-4.433-8.019-8.024-16.51-11.871-24.845c-4.193-9.082-10.483-16.311-19.534-20.516c-13.42-6.234-27.378-7.16-41.482-2.248
		c-18.327,6.384-35.699,14.372-50.118,27.962c-4.581,4.318-10.191,7.98-15.975,10.408c-3.036,1.274-8.999,0.582-10.931-1.61
		c-3.526-4.001,0.713-7.152,4.027-9.884c3.655-3.013,6.974-6.434,11.59-10.754c-17.343-12.026-33.204-21.827-51.983-25.786
		c-3.471-0.732-7.46-0.85-10.827,0.103c-13.112,3.71-24.226,10.33-32.203,22.02c-14.72,21.569-14.714,45.814-13.447,70.263
		c0.327,6.313,5.152,9.123,10.811,6.266c6.475-3.269,12.142-8.119,18.233-12.174c3.937-2.622,8.004-5.049,14.37-9.042
		c-0.456,10.183-1.116,17.331-1.003,24.467c0.12,7.557-0.477,15.436,5.099,23.285c11.031-5.549,21.488-11.209,32.297-16.086
		c5.752-2.595,12.024-4.423,18.248-5.381c2.338-0.36,6.573,2.197,7.413,4.392c0.712,1.861-1.522,6.151-3.652,7.583
		c-11.409,7.673-22.969,15.189-34.956,21.903c-5.048,2.827-11.177,4.404-16.982,5.06c-11.933,1.348-19.189-4.354-21.788-16.046
		c-0.956-4.3-1.518-8.687-1.932-11.112c-10.815-0.951-20.098-1.767-32.294-2.84c-5.299,6.36-12.913,14.264-19.073,23.174
		c-9.827,14.214-22.079,25.701-36.036,35.571c-8.244,5.83-17.088,10.916-24.803,17.364c-8.71,7.28-18.004,14.657-24.291,23.87
		c-12.283,17.997-22.651,37.3-33.671,55.827c0.675,1.268,0.896,2.332,1.548,2.815c22.306,16.525,38.991,37.185,46.665,64.252
		c10.79,38.054,2.996,73.314-20.41,103.985c-15.017,19.677-36.976,31.569-61.499,36.907c-30.305,6.596-54.503-0.681-72.069-29.08
		c-2.776-4.488-6.494-8.392-11.52-14.784c-7.133,12.92-13.328,23.456-18.866,34.326c-9.279,18.213-21.084,34.353-36.799,47.545
		c-5.623,4.72-10.901,9.865-16.659,14.406c-33.367,26.317-49.836,62.712-60.947,102.223c-1.969,7.002-3.462,14.404-3.516,21.633
		c-0.252,34.05-8.075,66.142-21.582,97.36c-12.726,29.411-25.865,58.925-20.835,92.705c2.123,14.259,6.001,27.181,14.33,39.08
		c12.346-4.952,12.736-15.265,15.032-24.356c5.51-21.818,14.362-27.783,36.403-24.306c12.275,1.937,24.196-4.017,29.551-15.145
		c2.182-4.533,3.86-9.339,5.423-14.134c12.171-37.336,67.873-44.244,89.125-19.555c4.162,4.835,8.926,9.397,14.143,13.035
		c17.91,12.488,37.95,20.146,59.506,14.167c21.177-5.874,37.016-19.74,44.861-41.311c5.805-15.96,11.954-31.795,17.887-47.709
		c6.941-18.616,19.153-33.23,34.383-45.585c13.835-11.223,29.192-14.973,46.393-9.363c18.304,5.97,36.594,11.983,54.859,18.072
		c20.915,6.973,40.695,5.224,59.099-7.452c9.825-6.767,19.703-13.465,29.375-20.445c18.141-13.09,38.734-16.331,60.205-14.105
		c17.552,1.82,28.318,13.92,36.876,28.156c5.91,9.831,10.964,20.234,17.48,29.632c16.536,23.847,38.632,23.998,55.886,0.555
		c4.311-5.857,8.181-12.338,10.768-19.1c4.581-11.976,8.28-24.313,11.892-36.632c10.582-36.086,19.565-72.648,40.371-104.932
		c21.974-34.098,49.234-61.401,88.266-75.382c6.407-2.295,12.284-6.147,18.27-9.522c7.831-4.417,10.038-11.421,8.662-19.951
		c-1.397-8.661-5.382-15.993-13.242-19.855c-9.805-4.816-20.194-8.436-30.288-12.674c-3.025-1.27-5.907-2.88-8.855-4.335
		c0.069-1.057,0.138-2.114,0.208-3.171c3.597-1.392,7.213-4.022,10.789-3.968c19.11,0.289,36.488,5.753,48.496,21.567
		c14.686,19.342,9.448,44.071-11.426,56.556c-5.89,3.523-12.012,6.878-18.412,9.289c-28.088,10.581-49.112,29.893-66.776,53.367
		c-3.341,4.44-7.146,9.03-7.707,15.365c15.249-3.568,29.391-7.191,43.67-10.154c34.127-7.083,68.381-13.564,102.44-20.949
		c8.837-1.916,17.628-5.368,25.616-9.651c46.105-24.716,69.601-64.814,77.316-115.409c2.911-19.09-3.264-35.553-15.372-49.659
		c-10.247-11.939-23.088-17.983-39.288-11.685c-2.082,0.809-4.705,0.226-7.078,0.288c-0.417-0.86-0.835-1.72-1.253-2.58
		C1068.65,483.468,1073.064,479.414,1078.919,474.037z M406.002,561.342c13.861-37.989,12.146-77.573-29.027-113.84
		c-12.111-10.668-24.386-12.087-39.322-7.947c-22.732,6.301-39.42,20.416-54.537,37.552c-16.595,18.813-27.533,39.526-27.774,65.402
		c-0.115,12.338,0.651,23.672,9.34,33.333c2.051,2.28,3.433,5.454,4.303,8.454c4.203,14.48,14.109,24.51,26.053,32.504
		c4.711,3.153,10.878,5.513,16.479,5.73C346.245,623.876,391.599,606.339,406.002,561.342z"/>
	<path fill="#FEC337" d="M897.573,536.839c-7.555-2.474-11.13-9.285-13.75-16.219c-5.325-14.089-5.568-28.659-3.157-43.372
		c2.628-16.038,7.951-31.052,16.869-44.717c1.444-2.212,2.781-4.495,5.074-8.217c-27.471-3.591-53.393-0.936-81.315-9.607
		c2.431-0.94,4.206-1.778,5.652-2.426c-14.559,0.135-31.477,4.321-38.129-2.231c-0.208,0.101-0.417,0.202-0.617,0.244
		c-2.401,0.507-7.266-1.517-7.886-3.457c-1.727-5.399-3.372-11.671-2.198-16.965c2.033-9.167,6.217-17.858,10.189-28.618
		c-9.706,1.84-16.309,6.65-23.5,10.035c-6.168,2.904-12.406,6.164-18.977,7.583c-8.701,1.878-15.446-2.792-15.513-11.101
		c-0.125-15.465,4.594-29.724,14.915-41.624c0.458-0.528,1.188-0.84,2.029-1.11c-0.194-2.491-0.977-4.383-2.287-4.866
		c-1.316-1.403-2.733-2.381-4.211-3.118c-1.048,1.572-1.98,2.784-3.15,3.667c-2.836,2.138-6.49,3.387-9.963,4.456
		c-24.223,7.456-49.094,11.348-74.369,10.259c-29.799-1.284-43.509-22.288-32.893-50.204c3.042-7.999,7.616-14.594,13.325-20.025
		c-3.823,0.97-7.595,1.916-11.31,2.892c-0.232,2.101-2.003,5.136-3.734,6.299c-11.409,7.673-22.969,15.189-34.956,21.902
		c-5.048,2.827-11.177,4.404-16.982,5.06c-11.933,1.348-19.189-4.354-21.788-16.046c-0.956-4.3-1.518-8.687-1.932-11.112
		c-10.814-0.951-20.098-1.767-32.294-2.84c-5.299,6.36-12.913,14.264-19.073,23.174c-9.827,14.214-22.079,25.701-36.036,35.57
		c-8.245,5.83-17.088,10.916-24.804,17.364c-8.71,7.28-18.004,14.657-24.291,23.87c-12.283,17.997-22.651,37.3-33.671,55.827
		c0.675,1.268,0.896,2.332,1.548,2.815c22.306,16.525,38.991,37.185,46.665,64.251c10.79,38.054,2.996,73.314-20.41,103.985
		c-15.017,19.677-36.976,31.569-61.499,36.907c-30.304,6.596-54.503-0.681-72.069-29.08c-2.776-4.488-6.494-8.392-11.52-14.784
		c-7.133,12.92-13.328,23.456-18.866,34.326c-9.279,18.213-21.084,34.353-36.799,47.545c-5.623,4.72-10.9,9.865-16.659,14.406
		c-33.367,26.317-49.836,62.712-60.947,102.223c-1.969,7.002-3.462,14.404-3.516,21.633c-0.252,34.05-8.074,66.142-21.582,97.36
		c-12.726,29.41-25.865,58.925-20.835,92.705c2.123,14.259,6.001,27.181,14.33,39.08c12.346-4.952,12.736-15.265,15.032-24.356
		c5.51-21.818,14.362-27.783,36.403-24.306c12.275,1.937,24.196-4.017,29.551-15.145c2.182-4.533,3.86-9.34,5.423-14.134
		c12.171-37.336,67.873-44.244,89.125-19.555c4.162,4.835,8.926,9.397,14.143,13.035c17.91,12.488,37.95,20.146,59.506,14.167
		c21.177-5.874,37.016-19.74,44.861-41.311c5.805-15.96,11.953-31.795,17.887-47.709c6.941-18.616,19.153-33.23,34.383-45.585
		c13.835-11.223,29.192-14.973,46.393-9.363c18.304,5.97,36.594,11.983,54.859,18.073c20.915,6.973,40.695,5.224,59.099-7.452
		c9.825-6.767,19.703-13.464,29.375-20.444c18.141-13.09,38.734-16.331,60.205-14.105c17.552,1.82,28.318,13.92,36.876,28.156
		c5.91,9.831,10.964,20.233,17.48,29.632c16.536,23.847,38.631,23.998,55.886,0.555c4.31-5.857,8.181-12.338,10.768-19.1
		c4.58-11.976,8.279-24.313,11.892-36.632c10.582-36.086,19.566-72.648,40.371-104.932c21.974-34.098,49.234-61.401,88.266-75.382
		c6.407-2.294,12.284-6.146,18.269-9.522c7.831-4.417,10.038-11.421,8.662-19.951c-1.397-8.661-5.382-15.993-13.242-19.855
		c-9.805-4.816-20.195-8.436-30.289-12.674c-3.025-1.27-5.907-2.88-8.854-4.335c0.069-1.057,0.138-2.114,0.207-3.171
		c1.427-0.552,2.856-1.295,4.284-1.992c-8.903-4.086-17.165-9.1-23.193-16.539C902.139,537.312,899.395,537.436,897.573,536.839z
		 M441.954,415.575c-8.032,4.109-17.919,1.841-21.683-4.977c-3.687-6.679-1.872-11.194,6.986-15.671
		c0.51,2.723,0.292,5.684,1.625,7.516c1.342,1.844,4.174,3.355,6.454,3.509c1.629,0.11,4.903-2.359,4.83-3.511
		c-0.141-2.224-1.704-4.823-3.47-6.35c-1.889-1.634-4.693-2.21-8.964-4.054c10.617-6.246,17.188-5.233,21.404,1.651
		C453.733,401.192,450.438,411.234,441.954,415.575z M476.676,369.047c-6.6-0.344-6.631-5.646-6.348-9.852
		c0.285-4.233,1.578-8.827,3.835-12.368c1.89-2.967,6.778-0.558,7.899,3.597C483.346,355.182,481.535,361.462,476.676,369.047z
		 M532.675,309.93c5.047,1.724,10.048,4.653,9.221,10.313c-0.557,3.813-3.869,8.301-7.245,10.37c-4.942,3.029-10.93,4.786-16.7,5.87
		c-3.536,0.664-8.76,0.309-10.922-1.872c-2.251-2.271-1.731-7.288-2.042-9.004C509.957,312.688,522.469,306.444,532.675,309.93z
		 M448.826,478.051c10.432-13.816,30.504-13.731,37.233-2.002c0.969,1.689,1.309,4.724,0.412,6.218
		c-0.872,1.453-3.925,2.71-5.644,2.334c-5.285-1.156-10.307-3.503-15.589-4.683C460.591,478.878,455.73,478.788,448.826,478.051z
		 M471.601,520.343c-5.603,6.469-12.359,4.837-15.657-3.24c-1.016-2.487-1.897-5.036-2.722-7.594
		c-2.478-7.69-0.714-12.081,6.589-15.373c2.86-1.289,6.122-1.651,9.116-2.682c4.354-1.499,9.514-3.798,12.189,1.159
		c1.837,3.404,0.824,8.344,1.03,11.703C478.101,510.575,475.411,515.944,471.601,520.343z M459.017,579.999
		c0.152,1.322,0.305,2.643,0.457,3.965c-10.294,4.075-20.391,8.807-30.955,11.989c-6.822,2.055-11.956-4.031-10.949-11.5
		c0.957-7.094,5.379-11.529,11.913-13.479c5.955-1.776,12.651-4.398,15.043,5.312c0.226,0.919,3.891,0.955,5.943,1.468
		C453.326,578.469,456.168,579.248,459.017,579.999z M360.796,633.31c2.793,2.476,3.916,6.835,4.856,8.639
		c-2.902,8.452-7.57,11.232-12.43,9.335c-3.997-1.559-5.558-4.559-4.283-8.753C350.39,637.762,358.436,631.218,360.796,633.31z
		 M313.627,706.132c2.579-6.137,6.347-12.756,11.471-16.68c27.366-20.96,58.41-26.011,91.625-10.772
		c16.218,7.441,23.664,22.37,21.345,39.247c-2.478,18.035-11.246,26.79-29.27,29.01c-4.967,0.612-9.981,0.84-16.433,1.363
		c-0.449,5.782-0.527,10.814-1.289,15.74c-1.538,9.949-6.394,15.589-16.352,15.069c-12.651-0.661-25.345-3.048-37.684-6.068
		c-6.155-1.507-6.797-8.073-5.417-13.789c0.946-3.918,2.722-7.636,4.417-12.226c-2.897-1.378-5.728-2.616-8.461-4.043
		C312.711,735.217,307.145,721.556,313.627,706.132z M263.467,762.773c1.584,4.932-5.689,11.585,2.378,14.307
		c2.693,0.908,7.497-0.483,9.612-2.57c6.022-5.939-3.978-8.631-3.89-14.317c5.456-2.172,10.708-0.823,12.822,3.786
		c1.838,4.007,2.194,10.028,0.525,14.045c-4.05,9.746-18.305,12.821-27.036,6.723c-5.07-3.541-6.756-8.527-5.094-14.402
		C254.232,765.23,256.784,761.233,263.467,762.773z M152.952,775.22c-4.612-2.213-6.82-6.115-5.604-11.241
		c1.272-5.366,12.457-10.512,17.049-7.11c3.004,2.225,4.126,6.992,5.302,9.164C166.726,774.25,158.574,777.917,152.952,775.22z
		 M141.906,899.581c-3.274-0.284-7.958-3.4-8.964-6.293c-1.517-4.362-0.372-9.649-0.359-14.543
		c5.144-10.483,17.905-12.724,24.938-3.999c1.313,1.629,2.132,4.117,2.171,6.227C159.81,887.5,148.342,900.138,141.906,899.581z
		 M200.7,805.704c-6.047,7.066-14.13,10.161-23.305,8.223c-9.774-2.064-10.973-11.637-2.878-20.455
		c0.669,0.474,1.719,0.821,1.935,1.453c1.25,3.658,0.775,9.752,6.35,8.596c4.281-0.888,9.301-4.283,11.341-8.013
		c1.671-3.055,0.126-8.506-1.323-12.4c-0.907-2.439-4.277-3.962-6.819-6.133c9.668-5.191,16.382-3.092,19.464,5.768
		C208.41,791.2,206.362,799.088,200.7,805.704z M273.198,681.671c-7.349,6.779-15.199,13.024-22.415,19.936
		c-7.142,6.841-14.003,8.877-20.882,5.178c-6.462-3.475-9.092-9.742-7.527-18.994c1.783-10.537,7.217-18.767,16.655-23.975
		c4.394-2.425,9.096-4.332,15.834,0.595c-12.645,7.243-21.393,15.228-18.972,31.531c14.131-8.179,22.635-24.581,43.269-22.998
		C276.35,677.136,275.179,679.843,273.198,681.671z M302.618,932.677c-2.698-0.45-5.341-1.226-8.072-1.865
		c-10.602-4.887-21.253-10.263-22.617-23.449c-1.392-13.461,6.683-22.628,17.471-28.805c5.747-3.291,12.737-5.172,19.372-5.965
		c9.035-1.08,18.272-0.753,27.414-0.594c12.575,0.219,24.397-1.495,35.519-8.255c8.085-4.915,13.56-1.889,13.643,7.354
		c0.056,6.218-1.295,12.874-3.717,18.617C369.7,918.003,332.956,937.735,302.618,932.677z M460.827,792.294
		c-14.794,8.272-29.365,17.732-45.249,23.084c-25.115,8.463-51.195,14.094-76.942,20.629c-7.981,2.026-16.183,3.224-24.319,4.583
		c-42.546,7.106-77.959,28.646-111.135,54.753c-1.742,1.37-3.562,2.641-6.953,2.398c4.225-4.356,8.064-9.186,12.735-12.994
		c41.866-34.129,88.016-59.142,141.886-69.134c37.999-7.049,74.504-19.599,109.899-35.214c3.344-1.476,6.837-2.635,10.324-3.746
		c0.647-0.206,1.592,0.524,3.057,1.065C472.507,785.117,466.554,789.092,460.827,792.294z M499.581,568.252
		c1.433-0.68,4.556,0.248,5.822,1.552c3.326,3.423,6.045,7.435,9.006,11.212c1.039-0.497,2.079-0.993,3.118-1.49
		c-0.526-3.962-0.99-7.933-1.596-11.882c-0.533-3.472-1.227-6.92-2.175-12.186c3.823,1.411,7.179,1.6,7.984,3.13
		c3.346,6.359,6.628,12.922,8.583,19.794c1.946,6.841-1.321,12.53-7.497,16.083c-5.907,3.398-13.931,2.46-18.475-3.653
		c-3.635-4.89-5.475-11.235-7.449-17.155C496.418,572.212,498.088,568.96,499.581,568.252z M517.358,520.593
		c8.711-9.939,35.048-7.898,41.988,3.33c1.528,2.472,1.574,5.86,2.781,10.774c-4.957,1.006-9.135,2.963-12.947,2.409
		c-9.378-1.362-18.637-3.688-27.829-6.068c-2.28-0.59-4.871-2.48-5.906-4.497C514.757,525.198,516.038,522.099,517.358,520.593z
		 M495.863,703.973c-9.288-2.257-18.49-4.871-27.71-7.405c-11.782-3.238-14.974-11.663-8.28-21.724
		c7.272-10.931,21.682-15.284,35.4-10.695c9.633,3.223,14.957,13.221,14.135,26.893c-0.242,4.02-0.918,8.014-1.641,14.087
		C502.852,704.686,499.244,704.795,495.863,703.973z M604.817,441c-16.732,20.253-46.334,21.852-61.349-4.995
		c-4.672,3.801-8.341,7.22-12.433,10.019c-8.015,5.483-13.198,4.765-21.209-0.875c-12.15-8.554-17.133-21.141-20.177-34.721
		c-2.214-9.877,0.022-13.545,9.693-16.267c6.97-1.962,14.265-2.773,21.972-4.201c-0.244-2.829-0.584-5.474-0.684-8.127
		c-0.627-16.683,6.003-27.184,21.636-32.525c16.37-5.592,32.908-7.594,49.546-0.176c18.556,8.273,28.726,22.732,29.896,42.52
		C622.796,410.018,616.948,426.317,604.817,441z M845.787,450.828c5.101,2.678,4.781,7.061,2.768,11.653
		c-2.665,6.675-7.699,8.896-13.936,5.889c-4.925-2.374-7.961-6.134-6.319-11.921C829.836,451.029,839.919,447.747,845.787,450.828z
		 M704.612,407.674c10.196,1.4,20.3,4.1,30.09,7.332c2.011,0.664,3.716,6.159,3.273,9.08c-0.337,2.217-4.116,4.242-6.742,5.642
		c-1.33,0.709-3.671,0.27-5.26-0.376c-10.678-4.334-21.278-8.863-32.022-13.379C694.874,409.89,699.948,407.034,704.612,407.674z
		 M660.284,431.456c-0.596,1.654-4.886,3.685-6.349,3.027c-7.171-3.224-3.622-8.748-3.635-15.012
		C660.22,420.881,662.556,425.162,660.284,431.456z M617.145,511.221c2.185-2.924,4.573-5.836,7.374-8.136
		c31.467-25.845,65.772-43.441,108.335-37.397c24.634,3.498,48.949,7.915,70.66,21.028c6.255,3.778,12.673,7.54,18.148,12.307
		c16.162,14.073,26.123,31.698,21.445,53.464c-4.616,21.477-20.389,34.369-40.489,41.354c-15.726,5.465-32.14,7.098-48.854,5.072
		c-30.921-3.747-61.88-7.181-92.802-10.925c-6.335-0.767-12.574-2.325-21.864-4.089c-6.954-5.566-16.777-11.731-24.401-19.937
		C603.733,552.16,605.612,526.653,617.145,511.221z M619.55,613.535c-1.429,1.936-5.431,3.285-7.941,2.875
		c-9.26-1.512-18.381-3.868-30.425-6.544c3.462-3.682,5.093-6.754,7.587-7.834c9.45-4.091,18.738-2.349,27.457,2.542
		C619.647,606.493,622.241,609.892,619.55,613.535z M648.778,375.494c-1.199-1.602-1.182-4.114-2.524-9.418
		c5.225,1.358,9.212,1.211,10.36,2.944c2.254,3.404,3.109,7.812,4.045,11.918c0.125,0.55-3.502,2.832-3.926,2.491
		C653.823,381.084,651.01,378.476,648.778,375.494z M545.364,736.432c-7.429,3.097-14.763,6.422-24.385,10.622
		c2.415-8.121,7.155-10.223,11.261-12.48c18.174-9.99,33.666-23.414,49.725-36.377c28.533-23.032,58.586-44.201,95.584-52.031
		c5.401-1.143,11.503-4.488,17.172,4.237c-3.87,2.457-6.754,4.538-9.865,6.188c-2.818,1.495-5.787,2.904-8.859,3.695
		c-30.068,7.743-55.112,24.707-77.96,44.591C582.146,718.708,564.46,728.472,545.364,736.432z M785.421,803.175
		c-21.157,14.09-46.069,9.044-59.691-12.442c-4.633-7.308-7.56-15.679-11.969-23.151c-8.205-13.905-16.051-16.493-30.868-11.022
		c-7.305,2.698-14.558,5.542-21.901,8.129c-3.87,1.363-7.817,2.804-11.847,3.369c-19.389,2.716-31.066-10.44-25.942-29.352
		c2.989-11.03,9.646-20.329,19.106-26.071c12.802-7.771,26.151-15.745,40.357-19.874c32.551-9.46,66.073-8.029,99.414-3.747
		c4.954,0.636,9.856,2.143,14.613,3.746c14.894,5.02,20.16,10.63,19.232,26.095c-1.117,18.603-4.603,37.063-7.064,55.586
		C803.676,786.612,796.045,796.101,785.421,803.175z M864.88,620.536c-9.76,11.011-21.892,18.276-36.61,19.963
		c-13.177,1.51-26.46,2.256-39.718,2.843c-10.509,0.465-21.053,0.255-31.58,0.185c-3.412-0.023-6.821-0.554-10.231-0.853
		c-0.268-1.018-0.536-2.036-0.804-3.055c3.708-1.858,7.232-4.629,11.156-5.419c19.743-3.973,39.468-8.56,59.438-10.707
		c15.929-1.713,30.646-5.006,43.681-14.508c1.449-1.057,3.093-1.907,4.757-2.581c0.754-0.305,1.777,0.056,3.183,0.148
		C872.56,612.343,868.355,616.615,864.88,620.536z"/>
	<path fill="#EDAC40" d="M1127.227,551.158c2.911-19.09-3.263-35.553-15.371-49.659c-10.248-11.939-23.088-17.983-39.288-11.685
		c-2.082,0.809-4.705,0.226-7.078,0.287c-0.417-0.86-0.835-1.72-1.253-2.58c4.414-4.053,8.828-8.107,14.682-13.484
		c-21.104-7.79-40.851-15.08-60.599-22.367c-6.457-2.382-13.031-4.491-19.358-7.179c-27.195-11.553-43.005-31.543-46.575-61.384
		c-1.463-12.228-5.187-24.184-7.863-36.268c-3.635-16.413-12.418-29.167-25.999-39.211c-5.731-4.238-10.36-10.232-14.714-16.013
		c-9.343-12.402-17.582-25.672-27.37-37.692c-13.395-16.449-31.764-20.602-52.06-17.901c-5.905,0.786-11.699,2.38-17.597,3.229
		c-20.656,2.975-37.053-4.966-47.174-23.275c-4.433-8.019-8.024-16.51-11.871-24.845c-4.193-9.082-10.483-16.311-19.534-20.516
		c-13.42-6.234-27.378-7.16-41.482-2.247c-18.327,6.384-35.699,14.372-50.118,27.961c-4.581,4.318-10.191,7.98-15.975,10.408
		c-3.036,1.274-8.999,0.582-10.931-1.61c-3.526-4.001,0.713-7.152,4.027-9.884c3.655-3.014,6.974-6.434,11.59-10.755
		c-17.344-12.026-33.205-21.827-51.983-25.786c-3.471-0.732-7.46-0.85-10.827,0.103c-13.112,3.71-24.226,10.33-32.203,22.02
		c-14.72,21.57-14.714,45.815-13.447,70.263c0.327,6.313,5.152,9.123,10.811,6.266c6.475-3.269,12.142-8.119,18.233-12.174
		c3.937-2.622,8.004-5.049,14.37-9.042c-0.456,10.183-1.116,17.331-1.003,24.467c0.12,7.557-0.477,15.435,5.099,23.285
		c11.031-5.549,21.488-11.209,32.297-16.086c5.752-2.595,12.024-4.422,18.248-5.381c2.338-0.36,6.573,2.197,7.413,4.392
		c0.134,0.349,0.136,0.8,0.082,1.284c3.715-0.976,7.487-1.922,11.31-2.892c6.549-6.231,14.608-10.915,23.837-14.155
		c1.245-0.437,2.732-0.404,4.072-0.266c0.791,0.082,1.515,0.804,2.49,1.365c1.247,5.905-4.355,7.185-7.174,10.345
		c-6.353,7.121-13.193,13.903-18.73,21.616c-2.731,3.805-3.94,9.317-4.215,14.148c-0.679,11.937,3.654,16.723,15.593,17.558
		c6.789,0.475,13.695,0.14,20.49-0.476c19.124-1.734,38.205-3.946,57.333-5.637c4.736-0.419,9.583,0.431,17.634,0.879
		c-1.872,2.638-3.144,4.766-4.28,6.471c1.478,0.737,2.895,1.715,4.211,3.118c1.31,0.484,2.093,2.375,2.287,4.866
		c1.285-0.413,2.892-0.701,4.668-1.309c-3.61,13.436-6.855,25.515-10.804,40.213c5.583-1.743,8.436-2.318,11.019-3.489
		c19.993-9.061,39.914-18.281,59.917-27.319c2.459-1.111,5.332-2.147,7.906-1.934c2.892,0.238,7.503,1.358,8.059,3.131
		c0.853,2.719-0.214,7.04-2.08,9.409c-4.225,5.364-9.987,9.528-14.138,14.937c-10.138,13.206-18.376,27.315-18.729,44.813
		c-0.044,2.203-2.288,5.601-4.261,6.561c6.652,6.552,23.569,2.366,38.129,2.231c1.742-0.78,2.999-1.279,4.239-1.283
		c21.978-0.076,43.958,0.076,65.936,0.285c3.187,0.031,6.386,0.596,9.547,1.105c13.569,2.186,16.677,8.476,10.979,21.263
		c-5.955,13.365-13.1,26.459-16.911,40.439c-3.172,11.631-2.78,24.369-2.915,36.628c-0.053,4.907,0.327,10.519,7.743,12.747
		c5.127,1.54,4.629,7.999,1.5,11.569c-0.598,0.682-1.599,1.206-2.753,1.577c6.027,7.439,14.289,12.453,23.193,16.539
		c2.174-1.06,4.348-2.008,6.505-1.976c19.11,0.289,36.488,5.753,48.496,21.567c14.687,19.342,9.448,44.071-11.426,56.556
		c-5.89,3.523-12.012,6.878-18.412,9.289c-28.087,10.581-49.112,29.893-66.776,53.367c-3.341,4.441-7.145,9.031-7.707,15.365
		c15.249-3.567,29.391-7.191,43.67-10.154c34.126-7.083,68.381-13.564,102.44-20.949c8.837-1.916,17.628-5.368,25.616-9.651
		C1096.016,641.851,1119.512,601.753,1127.227,551.158z M1088.457,519.258c-17.738-0.511-23.318,12.493-28.682,25.062
		c-5.192,12.166-8.853,24.991-13.073,37.564c-1.892,5.635-3.448,11.383-5.262,17.046c-7.526,23.493-23.673,38.884-46.324,47.236
		c-13.677,5.043-27.963,8.435-43.101,12.901c15.936-11.24,30.979-21.322,45.421-32.203c11.643-8.772,18.818-21.018,23.557-34.72
		c5.385-15.571,9.843-31.569,16.596-46.528c5.18-11.475,12.69-22.078,20.293-32.223c5.959-7.951,15.305-9.678,24.887-7.926
		c2.99,0.547,6.157,2.057,8.455,4.039C1095.546,513.235,1093.994,519.418,1088.457,519.258z"/>
	<path fill="#E15830" d="M406.002,561.342c-14.403,44.997-59.757,62.534-94.485,61.188c-5.601-0.217-11.768-2.577-16.479-5.73
		c-11.943-7.993-21.85-18.023-26.053-32.504c-0.871-3-2.253-6.174-4.303-8.454c-8.689-9.661-9.455-20.995-9.34-33.333
		c0.241-25.876,11.179-46.589,27.774-65.402c15.116-17.136,31.805-31.251,54.537-37.552c14.936-4.14,27.211-2.721,39.322,7.947
		C418.148,483.769,419.862,523.353,406.002,561.342z M350.177,545.23c-6.93-2.346-18.882,1.855-25.141,10.594
		c-5.43,7.583-3.941,16.147,3.69,21.226c10.474,6.972,25.042,4.01,31.06-6.315c5.514-9.46,3.583-19.552-4.539-23.619
		C354.44,546.711,353.55,546.475,350.177,545.23z M311.373,528.992c3.356-8.486,0.734-16.918-6.242-20.076
		c-8.765-3.967-20.525,1.708-24.484,11.816c-3.165,8.08-0.49,15.296,6.785,18.301C296.547,542.799,307.775,538.089,311.373,528.992z
		 M371.933,524.675c6.781,2.268,14.531-1.5,16.591-8.065c1.831-5.837-0.151-10.524-5.217-12.339
		c-6.649-2.382-16.016,2.125-17.941,8.633C363.857,518.006,366.578,522.884,371.933,524.675z M302.747,465.913
		c-5.518,7.591-5.72,11.423-1.116,15.018c4.842,3.78,13.783,2.583,18.71-2.675c3.841-4.099,5.39-8.865,0.977-13.258
		c-1.844-1.835-5.23-2.122-10.546-4.085c2.903,5.166,4.268,7.597,5.516,9.817C307.713,479.027,307.143,467.163,302.747,465.913z
		 M306.12,574.872c-4.149-4.11-5.985-7.321-8.611-8.218c-4.374-1.493-8.66,0.857-8.941,5.494c-0.159,2.625,2.906,7.519,4.899,7.726
		C296.63,580.203,300.112,577.462,306.12,574.872z M339.274,514.448c-5.423,3.237-8.891,4.336-10.826,6.693
		c-2.838,3.457-0.794,9.827,3.083,9.88c2.961,0.04,7.107-1.941,8.597-4.344C341.456,524.537,339.865,520.584,339.274,514.448z
		 M361.239,476.173c-4.038-4.916-5.527-8.205-8.026-9.424c-3.737-1.824-7.552,0.212-8.008,4.342
		c-0.253,2.29,1.823,6.329,3.749,7.001C351.494,478.979,354.917,477.332,361.239,476.173z"/>
	<path fill="#541C00" d="M639.097,583.898c-6.954-5.566-16.777-11.731-24.401-19.937c-10.963-11.801-9.084-37.308,2.449-52.74
		c2.185-2.924,4.573-5.836,7.374-8.136c31.467-25.845,65.772-43.441,108.335-37.397c24.634,3.498,48.949,7.915,70.66,21.028
		c6.255,3.778,12.673,7.54,18.148,12.307c16.161,14.073,26.122,31.698,21.444,53.464c-4.616,21.477-20.389,34.369-40.489,41.354
		c-15.726,5.465-32.14,7.097-48.854,5.072c-30.921-3.747-61.88-7.181-92.802-10.926C654.627,587.22,648.388,585.663,639.097,583.898
		z M652.096,543.701c6.601,1.707,12.342,3.295,18.135,4.668c12.921,3.061,25.969,5.641,38.78,9.101
		c18.314,4.947,36.819,6.399,55.758,6.274c20.45-0.134,35.756-10.442,50.085-22.792c10.808-9.314,10.432-15.339,0.214-24.948
		c-2.984-2.806-6.297-5.365-9.779-7.521c-27.22-16.849-57.31-23.855-88.9-25.415c-28.889-1.426-53.558,9.67-76.855,25.531
		c-13.355,9.092-8.951,21.58-0.012,28.354C643.469,539.944,648.328,541.726,652.096,543.701z M830.011,548.623
		c-1.703-0.244-2.225-0.493-2.533-0.332c-1.193,0.623-2.374,1.3-3.462,2.091c-32.982,23.978-70.26,26.829-108.888,21.411
		c-16.739-2.348-33.241-6.412-49.832-9.79c-13.885-2.827-28.288-4.404-38.679-15.874c-1.521-1.68-3.65-2.81-8.086-6.133
		c1.942,6.087,1.991,9.941,3.938,11.733c10.793,9.932,21.873,18.943,37.366,21.674c33.477,5.9,67.238,8.883,101.07,10.528
		c12.565,0.611,25.595-1.865,37.941-4.872C813.565,575.473,826.08,562.156,830.011,548.623z"/>
	<path fill="#541C00" d="M808.861,774.441c-5.185,12.171-12.815,21.659-23.439,28.734c-21.157,14.09-46.069,9.044-59.691-12.442
		c-4.633-7.308-7.56-15.679-11.969-23.151c-8.205-13.905-16.051-16.493-30.868-11.022c-7.305,2.698-14.558,5.542-21.901,8.129
		c-3.87,1.363-7.817,2.804-11.847,3.368c-19.389,2.716-31.066-10.44-25.942-29.352c2.989-11.029,9.646-20.329,19.106-26.071
		c12.802-7.771,26.151-15.745,40.357-19.874c32.551-9.46,66.073-8.029,99.414-3.747c4.954,0.636,9.856,2.142,14.613,3.746
		c14.894,5.02,20.159,10.63,19.231,26.095C814.808,737.458,811.321,755.919,808.861,774.441z M801.885,727.168
		c0.183-14.71-0.763-16.116-15.068-19.948c-3.522-0.944-7.175-1.946-10.774-1.974c-28.803-0.219-57.84-3.387-86.261,2.744
		c-12.749,2.75-25.004,8.557-36.909,14.19c-7.989,3.781-13.624,10.786-15.941,19.766c-2.07,8.02,1.486,12.447,9.842,11.864
		c3.139-0.219,6.279-1.284,9.29-2.334c9.085-3.171,18.153-6.4,27.137-9.843c7.999-3.065,16.954-4.998,24.051-0.934
		c9.016,5.163,16.342,3.131,24.466-0.354c2.078-0.891,4.4-1.284,6.649-1.694C759.459,734.812,780.561,731.017,801.885,727.168z
		 M801.836,741.407c-26.123,5.898-49.002,11.064-72.492,16.368c4.197,8.507,7.629,17.063,12.402,24.79
		c8.583,13.897,21.72,16.772,35.162,7.49c5.471-3.777,11.043-8.942,13.79-14.783C795.267,765.558,797.595,754.789,801.836,741.407z"
		/>
	<path fill="#541C00" d="M543.469,436.005c-4.672,3.8-8.341,7.22-12.433,10.019c-8.015,5.483-13.198,4.765-21.209-0.875
		c-12.15-8.554-17.133-21.141-20.177-34.721c-2.214-9.877,0.022-13.545,9.693-16.268c6.97-1.962,14.265-2.773,21.972-4.201
		c-0.244-2.829-0.585-5.474-0.684-8.127c-0.627-16.683,6.003-27.184,21.636-32.525c16.37-5.592,32.907-7.594,49.546-0.176
		c18.556,8.273,28.726,22.732,29.896,42.52c1.087,18.366-4.762,34.665-16.892,49.348
		C588.085,461.253,558.483,462.852,543.469,436.005z M504.868,405.29c3.963,12.154,5.185,23.228,12.748,31.958
		c32.942-29.686,32.942-29.686,45.348-24.773c-1.248,2.345-2.233,4.755-3.704,6.818c-1.803,2.527-4.013,4.764-5.849,6.896
		c8.177,16.519,22.897,20.054,35.86,9.205c11.132-9.317,16.972-21.168,18.032-35.726c1.564-21.483-12.935-38.958-34.427-39.535
		c-8.567-0.23-17.427,1.101-25.751,3.267c-13.932,3.625-17.09,10.975-12.439,26.871c6.097-0.102,12.449-0.036,18.78-0.375
		c4.42-0.237,9.424-0.067,9.475,5.043c0.031,3.109-3.36,8.002-6.289,9.031c-6.316,2.217-13.32,3.276-20.051,3.315
		C526.629,407.341,516.649,406.102,504.868,405.29z"/>
	<path fill="#541C00" d="M392.365,748.299c-0.449,5.782-0.527,10.814-1.289,15.74c-1.538,9.949-6.394,15.589-16.352,15.069
		c-12.651-0.661-25.345-3.048-37.684-6.068c-6.155-1.507-6.797-8.073-5.417-13.789c0.946-3.918,2.722-7.636,4.417-12.226
		c-2.897-1.378-5.728-2.616-8.461-4.043c-14.868-7.764-20.434-21.426-13.952-36.85c2.579-6.137,6.347-12.756,11.471-16.68
		c27.366-20.961,58.41-26.011,91.625-10.772c16.218,7.441,23.664,22.37,21.345,39.247c-2.478,18.035-11.246,26.79-29.27,29.01
		C403.831,747.548,398.817,747.777,392.365,748.299z M393.407,739.717c7.146-2.184,13.433-3.49,19.197-5.999
		c11.027-4.8,15.803-18.311,10.407-28.874c-3.971-7.774-10.944-12.568-19.038-14.793c-22.329-6.138-44.288-6.581-65.19,5.718
		c-8.016,4.717-14.673,10.451-13.77,20.311c0.972,10.611,9.679,13.472,18.647,15.12c0.81,0.149,1.745-0.379,3.355-0.771
		c2.822-4.028,5.668-8.77,9.246-12.873c1.475-1.691,5.189-3.345,6.684-2.602c1.748,0.869,3.51,4.775,2.941,6.66
		c-1.688,5.587-3.947,11.189-7.045,16.116c-4.131,6.569-9.41,12.405-13.889,18.772c-1.607,2.283-2.324,5.193-4.087,9.312
		c13.202-3.411,24.832,4.59,36.765-0.64c0.171-5.856-0.218-10.946,0.586-15.841c1.254-7.629,2.948-15.241,5.273-22.602
		c0.659-2.087,4.159-3.276,8.496-6.436C392.547,727.974,392.902,732.821,393.407,739.717z"/>
	<path fill="#541C00" d="M474.13,777.717c-1.623,7.399-7.576,11.374-13.303,14.577c-14.794,8.272-29.365,17.732-45.25,23.084
		c-25.115,8.463-51.195,14.094-76.941,20.629c-7.981,2.026-16.183,3.224-24.32,4.583c-42.546,7.106-77.959,28.646-111.135,54.753
		c-1.742,1.371-3.562,2.641-6.953,2.398c4.225-4.356,8.064-9.186,12.735-12.994c41.866-34.129,88.016-59.142,141.886-69.134
		c38-7.049,74.504-19.599,109.899-35.214c3.344-1.475,6.837-2.635,10.324-3.746C471.72,776.446,472.666,777.177,474.13,777.717z"/>
	<path fill="#541C00" d="M952.015,659.068c15.936-11.24,30.979-21.322,45.421-32.203c11.643-8.772,18.818-21.018,23.557-34.72
		c5.385-15.571,9.844-31.569,16.596-46.528c5.18-11.475,12.69-22.078,20.293-32.223c5.959-7.951,15.305-9.678,24.887-7.926
		c2.99,0.547,6.157,2.057,8.455,4.039c4.323,3.728,2.77,9.911-2.767,9.751c-17.738-0.511-23.318,12.493-28.682,25.062
		c-5.192,12.166-8.853,24.991-13.073,37.564c-1.892,5.636-3.448,11.383-5.262,17.046c-7.526,23.494-23.673,38.884-46.323,47.236
		C981.439,651.21,967.153,654.602,952.015,659.068z"/>
	<path fill="#541C00" d="M294.547,930.812c-10.602-4.887-21.253-10.263-22.617-23.449c-1.392-13.461,6.683-22.628,17.471-28.805
		c5.747-3.291,12.737-5.172,19.372-5.965c9.035-1.08,18.272-0.753,27.414-0.594c12.575,0.219,24.397-1.495,35.519-8.256
		c8.085-4.915,13.56-1.889,13.643,7.354c0.056,6.218-1.295,12.875-3.717,18.617c-11.933,28.288-48.677,48.02-79.014,42.961
		C299.921,932.227,297.277,931.451,294.547,930.812z M369.999,878.46c-12.25,1.258-22.644,2.454-33.064,3.349
		c-7.302,0.627-14.887-0.177-21.892,1.524c-7.318,1.777-15.059,4.554-20.884,9.108c-9.246,7.228-7.744,13.515,2.796,18.322
		c23.243,10.6,58.77-1.404,70.687-24.019C368.843,884.466,369.109,881.696,369.999,878.46z"/>
	<path fill="#541C00" d="M664.113,252.151c1.247,5.905-4.355,7.185-7.174,10.345c-6.353,7.121-13.193,13.903-18.73,21.616
		c-2.731,3.805-3.94,9.317-4.215,14.148c-0.679,11.937,3.654,16.723,15.593,17.558c6.789,0.475,13.695,0.14,20.489-0.476
		c19.124-1.734,38.205-3.947,57.333-5.637c4.736-0.419,9.584,0.431,17.634,0.879c-3.599,5.071-4.991,8.299-7.43,10.137
		c-2.836,2.138-6.49,3.387-9.963,4.456c-24.223,7.456-49.093,11.348-74.369,10.259c-29.799-1.284-43.509-22.288-32.893-50.204
		c6.531-17.176,19.888-28.116,37.162-34.181c1.245-0.437,2.732-0.405,4.072-0.266C662.413,250.868,663.137,251.59,664.113,252.151z"
		/>
	<path fill="#541C00" d="M751.929,323.73c-3.61,13.436-6.855,25.515-10.804,40.213c5.583-1.743,8.436-2.318,11.019-3.489
		c19.993-9.061,39.914-18.281,59.917-27.319c2.459-1.111,5.332-2.147,7.906-1.935c2.892,0.238,7.503,1.358,8.059,3.131
		c0.853,2.719-0.214,7.04-2.08,9.409c-4.226,5.364-9.987,9.528-14.138,14.937c-10.138,13.206-18.376,27.315-18.729,44.813
		c-0.049,2.436-2.791,6.365-4.878,6.806c-2.401,0.507-7.266-1.517-7.886-3.457c-1.727-5.399-3.372-11.671-2.197-16.965
		c2.034-9.167,6.217-17.858,10.189-28.618c-9.706,1.841-16.309,6.65-23.5,10.035c-6.168,2.904-12.406,6.164-18.977,7.583
		c-8.701,1.878-15.446-2.792-15.513-11.101c-0.125-15.465,4.594-29.724,14.915-41.624
		C746.388,324.815,748.991,324.736,751.929,323.73z"/>
	<path fill="#541C00" d="M902.61,424.315c-27.471-3.591-53.392-0.936-81.315-9.606c5.359-2.073,7.622-3.701,9.891-3.709
		c21.978-0.076,43.958,0.076,65.937,0.285c3.187,0.03,6.385,0.596,9.547,1.105c13.569,2.186,16.676,8.476,10.979,21.263
		c-5.954,13.365-13.099,26.459-16.911,40.439c-3.172,11.632-2.78,24.369-2.915,36.628c-0.054,4.907,0.326,10.519,7.742,12.747
		c5.127,1.541,4.629,7.999,1.5,11.569c-1.725,1.967-6.704,2.716-9.491,1.803c-7.556-2.474-11.13-9.285-13.75-16.218
		c-5.325-14.089-5.568-28.659-3.157-43.372c2.628-16.038,7.95-31.052,16.869-44.717C898.98,430.32,900.316,428.037,902.61,424.315z"
		/>
	<path fill="#541C00" d="M694.722,650.403c-3.87,2.457-6.754,4.538-9.865,6.188c-2.818,1.495-5.787,2.904-8.859,3.695
		c-30.068,7.743-55.113,24.707-77.96,44.591c-15.892,13.831-33.578,23.595-52.674,31.556c-7.429,3.097-14.764,6.422-24.385,10.622
		c2.415-8.12,7.155-10.223,11.261-12.48c18.174-9.99,33.666-23.414,49.725-36.377c28.533-23.031,58.586-44.201,95.584-52.031
		C682.951,645.023,689.053,641.678,694.722,650.403z"/>
	<path fill="#541C00" d="M745.937,639.619c3.708-1.858,7.232-4.629,11.156-5.419c19.743-3.973,39.468-8.559,59.439-10.707
		c15.929-1.713,30.646-5.006,43.681-14.508c1.449-1.057,3.093-1.907,4.757-2.581c0.754-0.305,1.777,0.056,3.183,0.148
		c4.408,5.792,0.203,10.064-3.273,13.985c-9.76,11.011-21.892,18.276-36.61,19.963c-13.177,1.51-26.46,2.256-39.718,2.843
		c-10.509,0.465-21.053,0.255-31.58,0.185c-3.412-0.023-6.821-0.554-10.231-0.853C746.473,641.655,746.205,640.637,745.937,639.619z
		"/>
	<path fill="#541C00" d="M507.766,705.128c-4.915-0.442-8.522-0.334-11.904-1.155c-9.288-2.257-18.49-4.871-27.71-7.405
		c-11.782-3.238-14.974-11.663-8.28-21.724c7.272-10.931,21.682-15.284,35.4-10.695c9.633,3.223,14.957,13.221,14.135,26.893
		C509.166,695.062,508.49,699.056,507.766,705.128z M499.969,688.906c-0.042-7.477-4.237-11.38-11.36-12.334
		c-6.736-0.902-13.797-2.07-18.908,5.053C480.612,684.25,490.112,686.535,499.969,688.906z"/>
	<path fill="#541C00" d="M254.862,664.411c-12.645,7.243-21.393,15.228-18.971,31.531c14.131-8.179,22.636-24.581,43.269-22.998
		c-2.809,4.193-3.98,6.9-5.962,8.728c-7.349,6.779-15.199,13.024-22.415,19.936c-7.142,6.841-14.003,8.877-20.882,5.178
		c-6.462-3.475-9.092-9.742-7.527-18.994c1.783-10.537,7.217-18.767,16.655-23.975C243.422,661.39,248.124,659.483,254.862,664.411z
		"/>
	<path fill="#541C00" d="M517.527,579.527c-0.526-3.962-0.99-7.933-1.596-11.882c-0.533-3.472-1.227-6.919-2.175-12.185
		c3.824,1.411,7.179,1.6,7.984,3.13c3.346,6.359,6.628,12.922,8.583,19.794c1.946,6.841-1.321,12.53-7.498,16.083
		c-5.907,3.398-13.931,2.46-18.475-3.653c-3.635-4.89-5.475-11.235-7.449-17.155c-0.482-1.447,1.187-4.699,2.68-5.407
		c1.433-0.679,4.556,0.248,5.822,1.552c3.326,3.423,6.045,7.435,9.006,11.212C515.449,580.52,516.488,580.024,517.527,579.527z"/>
	<path fill="#541C00" d="M504.987,325.607c4.971-12.919,17.482-19.164,27.688-15.677c5.047,1.724,10.048,4.653,9.221,10.313
		c-0.557,3.813-3.869,8.301-7.245,10.37c-4.942,3.029-10.93,4.786-16.7,5.87c-3.536,0.664-8.76,0.309-10.922-1.872
		C504.778,332.34,505.298,327.323,504.987,325.607z"/>
	<path fill="#541C00" d="M562.127,534.697c-4.957,1.006-9.135,2.963-12.947,2.409c-9.378-1.362-18.637-3.688-27.829-6.068
		c-2.28-0.59-4.871-2.48-5.906-4.497c-0.688-1.343,0.593-4.441,1.913-5.948c8.711-9.939,35.048-7.898,41.988,3.33
		C560.875,526.395,560.92,529.782,562.127,534.697z"/>
	<path fill="#541C00" d="M482.147,504.316c-4.047,6.259-6.736,11.628-10.546,16.027c-5.603,6.469-12.36,4.837-15.657-3.24
		c-1.016-2.487-1.897-5.036-2.722-7.594c-2.478-7.69-0.714-12.081,6.59-15.373c2.86-1.289,6.122-1.651,9.116-2.682
		c4.354-1.499,9.514-3.798,12.189,1.159C482.953,496.016,481.941,500.957,482.147,504.316z"/>
	<path fill="#541C00" d="M174.52,793.47c0.667,0.476,1.717,0.824,1.934,1.456c1.25,3.658,0.775,9.752,6.35,8.596
		c4.281-0.888,9.301-4.283,11.341-8.014c1.671-3.055,0.126-8.506-1.323-12.4c-0.907-2.439-4.276-3.962-6.819-6.133
		c9.668-5.191,16.382-3.092,19.464,5.768c2.942,8.458,0.894,16.346-4.767,22.961c-6.047,7.066-14.13,10.161-23.304,8.223
		C167.622,811.863,166.423,802.291,174.52,793.47z"/>
	<path fill="#541C00" d="M459.474,583.964c-10.294,4.075-20.391,8.807-30.955,11.989c-6.822,2.055-11.956-4.031-10.949-11.5
		c0.957-7.094,5.379-11.529,11.913-13.479c5.955-1.776,12.651-4.398,15.043,5.312c0.226,0.919,3.891,0.955,5.943,1.468
		c2.858,0.715,5.7,1.494,8.548,2.245C459.169,581.321,459.322,582.643,459.474,583.964z"/>
	<path fill="#541C00" d="M132.583,878.744c5.144-10.483,17.905-12.724,24.938-3.999c1.313,1.629,2.132,4.117,2.171,6.227
		c0.119,6.528-11.349,19.166-17.785,18.608c-3.274-0.284-7.958-3.4-8.964-6.293C131.425,888.926,132.569,883.638,132.583,878.744z"
		/>
	<path fill="#541C00" d="M693.951,415.973c0.923-6.084,5.998-8.94,10.661-8.299c10.197,1.4,20.3,4.1,30.09,7.332
		c2.011,0.664,3.716,6.159,3.273,9.08c-0.337,2.217-4.116,4.242-6.742,5.641c-1.33,0.709-3.671,0.27-5.26-0.376
		C715.294,425.018,704.695,420.489,693.951,415.973z"/>
	<path fill="#541C00" d="M427.732,392.036c10.617-6.246,17.188-5.233,21.405,1.652c4.597,7.505,1.301,17.547-7.182,21.888
		c-8.033,4.11-17.919,1.84-21.683-4.977c-3.687-6.679-1.872-11.194,6.986-15.671c0.51,2.724,0.292,5.684,1.625,7.516
		c1.342,1.843,4.174,3.355,6.454,3.509c1.629,0.11,4.903-2.359,4.83-3.512c-0.141-2.223-1.704-4.823-3.47-6.35
		C434.807,394.456,432.004,393.88,427.732,392.036z"/>
	<path fill="#541C00" d="M271.567,760.193c5.456-2.172,10.708-0.823,12.822,3.786c1.838,4.007,2.194,10.028,0.525,14.045
		c-4.05,9.747-18.305,12.821-27.036,6.723c-5.07-3.541-6.756-8.527-5.094-14.402c1.447-5.115,3.999-9.112,10.682-7.572
		c1.584,4.932-5.689,11.585,2.378,14.307c2.693,0.909,7.497-0.483,9.613-2.569C281.479,768.571,271.478,765.879,271.567,760.193z"/>
	<path fill="#541C00" d="M448.826,478.051c10.432-13.816,30.504-13.731,37.233-2.002c0.969,1.689,1.309,4.724,0.412,6.218
		c-0.872,1.453-3.924,2.71-5.644,2.334c-5.285-1.156-10.307-3.503-15.589-4.683C460.591,478.879,455.73,478.788,448.826,478.051z"/>
	<path fill="#541C00" d="M581.184,609.866c3.462-3.683,5.093-6.754,7.587-7.834c9.45-4.091,18.738-2.349,27.457,2.542
		c3.419,1.918,6.013,5.317,3.322,8.961c-1.429,1.936-5.431,3.285-7.941,2.875C602.35,614.899,593.228,612.543,581.184,609.866z"/>
	<path fill="#541C00" d="M848.563,462.479c-2.673,6.677-7.707,8.898-13.945,5.891c-4.925-2.374-7.961-6.133-6.32-11.921
		c1.537-5.42,11.619-8.702,17.487-5.621C850.887,453.506,850.568,457.889,848.563,462.479z"/>
	<path fill="#541C00" d="M169.699,766.032c-2.973,8.219-11.125,11.886-16.747,9.188c-4.612-2.213-6.82-6.115-5.604-11.242
		c1.272-5.366,12.457-10.512,17.049-7.11C167.4,759.093,168.522,763.859,169.699,766.032z"/>
	<path fill="#541C00" d="M365.652,641.948c-2.902,8.452-7.57,11.232-12.429,9.336c-3.997-1.56-5.558-4.559-4.283-8.753
		c1.45-4.769,9.496-11.313,11.857-9.221C363.589,635.785,364.712,640.145,365.652,641.948z"/>
	<path fill="#541C00" d="M476.676,369.047c-6.6-0.344-6.631-5.646-6.348-9.852c0.285-4.233,1.578-8.827,3.835-12.368
		c1.89-2.967,6.778-0.558,7.899,3.597C483.346,355.182,481.535,361.462,476.676,369.047z"/>
	<path fill="#541C00" d="M646.253,366.076c5.225,1.358,9.212,1.211,10.36,2.944c2.254,3.403,3.109,7.811,4.045,11.918
		c0.125,0.55-3.503,2.832-3.926,2.491c-2.91-2.344-5.724-4.952-7.955-7.935C647.579,373.892,647.596,371.38,646.253,366.076z"/>
	<path fill="#541C00" d="M650.301,419.471c9.919,1.41,12.255,5.691,9.984,11.985c-0.596,1.654-4.886,3.685-6.349,3.027
		C646.765,431.259,650.313,425.735,650.301,419.471z"/>
	<path fill="#541C00" d="M350.177,545.23c3.373,1.245,4.263,1.482,5.07,1.886c8.122,4.067,10.053,14.159,4.539,23.619
		c-6.018,10.325-20.586,13.287-31.06,6.315c-7.631-5.079-9.12-13.643-3.69-21.226C331.295,547.085,343.247,542.884,350.177,545.23z
		 M333.241,565.504c6.515,4.042,12.049,5.414,16.135-1.258c2.426-3.962,0.222-6.876-3.971-8.318
		C339.453,553.88,337.482,555.313,333.241,565.504z"/>
	<path fill="#541C00" d="M311.373,528.992c-3.598,9.097-14.826,13.807-23.941,10.041c-7.275-3.005-9.95-10.221-6.785-18.301
		c3.959-10.108,15.719-15.784,24.484-11.816C312.107,512.074,314.729,520.506,311.373,528.992z"/>
	<path fill="#541C00" d="M371.933,524.675c-5.355-1.791-8.077-6.669-6.567-11.772c1.924-6.507,11.292-11.014,17.941-8.633
		c5.066,1.815,7.048,6.502,5.217,12.339C386.465,523.175,378.714,526.943,371.933,524.675z"/>
	<path fill="#541C00" d="M302.747,465.913c4.397,1.251,4.966,13.115,13.542,4.817c-1.248-2.221-2.613-4.651-5.516-9.817
		c5.316,1.962,8.702,2.249,10.546,4.085c4.413,4.393,2.864,9.159-0.977,13.258c-4.928,5.259-13.869,6.456-18.71,2.675
		C297.027,477.335,297.229,473.503,302.747,465.913z"/>
	<path fill="#541C00" d="M306.12,574.872c-6.008,2.59-9.49,5.331-12.653,5.002c-1.994-0.208-5.058-5.101-4.899-7.726
		c0.281-4.637,4.566-6.987,8.941-5.494C300.135,567.551,301.971,570.762,306.12,574.872z"/>
	<path fill="#541C00" d="M339.274,514.448c0.59,6.136,2.182,10.088,0.854,12.229c-1.491,2.402-5.637,4.383-8.597,4.344
		c-3.876-0.053-5.92-6.423-3.083-9.88C330.384,518.784,333.851,517.686,339.274,514.448z"/>
	<path fill="#541C00" d="M361.239,476.173c-6.322,1.159-9.745,2.805-12.285,1.919c-1.927-0.672-4.003-4.711-3.749-7.001
		c0.456-4.129,4.271-6.166,8.008-4.342C355.712,467.969,357.201,471.257,361.239,476.173z"/>
	<path fill="#E15830" d="M652.096,543.701c-3.768-1.975-8.627-3.758-12.573-6.747c-8.939-6.773-13.343-19.261,0.012-28.354
		c23.297-15.861,47.966-26.957,76.855-25.531c31.59,1.56,61.68,8.566,88.9,25.415c3.482,2.155,6.795,4.715,9.779,7.521
		c10.217,9.609,10.593,15.633-0.214,24.948c-14.329,12.349-29.635,22.657-50.085,22.792c-18.939,0.124-37.444-1.328-55.758-6.274
		c-12.811-3.461-25.859-6.04-38.78-9.101C664.438,546.997,658.697,545.408,652.096,543.701z M698.462,546.318
		c8.864,3.136,16.935,0.183,19.371-7.086c2.042-6.095-0.695-11.235-7.373-13.845c-9.452-3.693-19.171-0.012-21.527,8.152
		C687.435,538.735,691.164,543.737,698.462,546.318z M761.116,532.624c5.12-0.806,10.812-0.585,15.268-2.824
		c2.651-1.333,5.151-6.977,4.436-9.873c-0.719-2.918-5.355-6.555-8.534-6.825c-6.357-0.54-13.894-5.049-19.123,2.02
		c-1.496,2.022-1.458,6.401-0.309,8.847C754.264,526.971,757.577,529.079,761.116,532.624z M677.703,513.689
		c-1.072-1.518-2.379-5.103-4.913-6.575c-4.398-2.555-12.714,1.376-13.162,6.329c-0.266,2.939,1.629,7.232,3.987,8.985
		C667.372,525.219,675.178,520.874,677.703,513.689z M706.024,504.779c6.081,6.449,11.333,8.008,16.796,6.392
		c2.447-0.724,5.108-3.858,5.767-6.393c0.443-1.704-1.977-5.141-3.977-6.245c-2.604-1.438-6.525-2.552-9.036-1.594
		C712.225,498.215,709.687,501.618,706.024,504.779z"/>
	<path fill="#C4432F" d="M830.011,548.623c-3.931,13.533-16.445,26.85-31.164,30.435c-12.346,3.008-25.376,5.484-37.941,4.872
		c-33.832-1.645-67.593-4.628-101.07-10.528c-15.493-2.731-26.573-11.742-37.366-21.674c-1.947-1.792-1.997-5.646-3.938-11.733
		c4.436,3.323,6.565,4.453,8.086,6.133c10.391,11.47,24.794,13.047,38.679,15.874c16.59,3.378,33.092,7.442,49.832,9.79
		c38.628,5.418,75.907,2.567,108.888-21.411c1.088-0.791,2.268-1.468,3.462-2.091C827.786,548.13,828.308,548.379,830.011,548.623z"
		/>
	<path fill="#EDAC40" d="M801.885,727.168c-21.323,3.849-42.425,7.644-63.519,11.485c-2.249,0.409-4.571,0.802-6.649,1.694
		c-8.124,3.485-15.45,5.517-24.466,0.354c-7.097-4.065-16.053-2.131-24.051,0.934c-8.984,3.443-18.052,6.672-27.137,9.843
		c-3.01,1.05-6.151,2.115-9.29,2.334c-8.356,0.583-11.912-3.844-9.842-11.864c2.317-8.98,7.952-15.986,15.941-19.766
		c11.905-5.634,24.159-11.44,36.909-14.19c28.421-6.131,57.458-2.963,86.261-2.744c3.6,0.027,7.252,1.03,10.774,1.974
		C801.122,711.052,802.067,712.458,801.885,727.168z"/>
	<path fill="#FFFFFF" d="M801.836,741.407c-4.241,13.382-6.569,24.151-11.138,33.865c-2.747,5.841-8.319,11.006-13.79,14.783
		c-13.442,9.281-26.579,6.407-35.162-7.49c-4.773-7.728-8.205-16.283-12.402-24.79C752.833,752.471,775.713,747.305,801.836,741.407
		z"/>
	<path fill="#F7D9BC" d="M504.868,405.29c11.781,0.812,21.761,2.051,31.733,1.993c6.731-0.039,13.736-1.097,20.051-3.315
		c2.929-1.029,6.32-5.921,6.289-9.031c-0.05-5.11-5.054-5.279-9.475-5.043c-6.331,0.339-12.684,0.273-18.78,0.375
		c-4.651-15.897-1.493-23.246,12.439-26.871c8.324-2.166,17.184-3.497,25.751-3.267c21.492,0.577,35.991,18.052,34.427,39.535
		c-1.06,14.559-6.9,26.409-18.032,35.726c-12.964,10.85-27.683,7.314-35.86-9.205c1.835-2.131,4.045-4.368,5.849-6.896
		c1.471-2.063,2.456-4.473,3.704-6.818c-12.405-4.913-12.405-4.913-45.348,24.773C510.052,428.518,508.831,417.444,504.868,405.29z"
		/>
	<path fill="#F7D9BC" d="M393.407,739.717c-0.505-6.896-0.859-11.742-1.421-19.422c-4.337,3.16-7.837,4.349-8.496,6.436
		c-2.325,7.361-4.019,14.973-5.273,22.602c-0.804,4.894-0.416,9.985-0.586,15.841c-11.933,5.23-23.563-2.771-36.765,0.64
		c1.763-4.12,2.48-7.029,4.087-9.312c4.479-6.367,9.757-12.203,13.889-18.772c3.099-4.927,5.358-10.529,7.045-16.116
		c0.57-1.885-1.193-5.791-2.941-6.66c-1.495-0.743-5.209,0.911-6.684,2.602c-3.579,4.103-6.425,8.845-9.246,12.873
		c-1.61,0.392-2.545,0.92-3.355,0.771c-8.968-1.648-17.675-4.509-18.647-15.12c-0.903-9.86,5.754-15.594,13.77-20.311
		c20.902-12.299,42.861-11.856,65.19-5.718c8.094,2.225,15.067,7.019,19.038,14.793c5.396,10.563,0.62,24.074-10.407,28.874
		C406.84,736.227,400.552,737.533,393.407,739.717z"/>
	<path fill="#FFFFFF" d="M369.999,878.46c-0.89,3.235-1.156,6.006-2.356,8.284c-11.917,22.615-47.444,34.62-70.687,24.019
		c-10.54-4.807-12.042-11.094-2.796-18.322c5.825-4.554,13.566-7.33,20.884-9.108c7.005-1.701,14.59-0.897,21.892-1.524
		C347.355,880.914,357.749,879.718,369.999,878.46z"/>
	<path fill="#FFFFFF" d="M499.969,688.906c-9.857-2.371-19.357-4.657-30.268-7.281c5.111-7.123,12.172-5.955,18.908-5.053
		C495.732,677.526,499.927,681.429,499.969,688.906z"/>
	<path fill="#C4432F" d="M333.241,565.504c4.241-10.191,6.212-11.623,12.164-9.576c4.193,1.442,6.397,4.356,3.971,8.318
		C345.29,570.917,339.756,569.546,333.241,565.504z"/>
	<path fill="#541C00" d="M698.462,546.318c-7.297-2.581-11.027-7.584-9.528-12.778c2.356-8.164,12.075-11.845,21.527-8.152
		c6.678,2.609,9.415,7.749,7.373,13.845C715.397,546.502,707.326,549.454,698.462,546.318z"/>
	<path fill="#541C00" d="M761.116,532.624c-3.539-3.545-6.852-5.653-8.262-8.655c-1.149-2.446-1.187-6.825,0.309-8.847
		c5.229-7.068,12.765-2.56,19.123-2.02c3.179,0.27,7.815,3.907,8.534,6.825c0.715,2.896-1.785,8.541-4.436,9.873
		C771.928,532.04,766.236,531.818,761.116,532.624z"/>
	<path fill="#541C00" d="M677.703,513.689c-2.525,7.185-10.331,11.53-14.088,8.738c-2.359-1.753-4.253-6.046-3.987-8.985
		c0.447-4.952,8.764-8.884,13.162-6.329C675.324,508.586,676.631,512.171,677.703,513.689z"/>
	<path fill="#541C00" d="M706.024,504.779c3.663-3.16,6.201-6.563,9.549-7.841c2.511-0.958,6.432,0.156,9.036,1.594
		c1.999,1.104,4.42,4.542,3.977,6.245c-0.659,2.536-3.32,5.669-5.767,6.393C717.357,512.786,712.105,511.228,706.024,504.779z"/>
</g>
</svg>
